# xmcd
#
# Track frame offsets: 
#        150
#        13829
#        28944
#        44949
#        60446
#        75492
#        89821
#        104260
#        121437
#        136018
#        150636
#        163878
#        177244
#        193830
#        208301
#        225350
#        240243
#        253930
#        266832
#        278542
#
# Disc length: 3885 seconds
#
# Revision: 0
# Processed by: cddbd v1.5.2PL0 Copyright (c) Steve Scherf et al.
# Submitted via: ExactAudioCopy v0.99pb4
#
DISCID=1e0f2b14
DTITLE=Various Artist - Hits Van Hier - Het Beste Van 2014 - CD 1
DYEAR=2014
DGENRE=Chanson
TTITLE0=Jo Vally - We Dansen De Nacht Voorbij
TTITLE1=De Romeo's and Willy Sommers - Jij Bent Zo Mooi
TTITLE2=Sergio - Alleen Bij Jou
TTITLE3=Bart Herman - Bartje (Is Een Leuke Naam)
TTITLE4=Nicole and Hugo - Hou Van Mij
TTITLE5=Michael Lanzo - Vraag Aan Mij Niet Hoe
TTITLE6=Lisa Del Bo - Dicht Bij Jou
TTITLE7=David Vandyck - Zomerzon
TTITLE8=Wendy Van Wanten - Wat Een Avond
TTITLE9=Eveline - Geluk Zet Je Zorgen Opzij
TTITLE10=Herbert - Smoorverliefd
TTITLE11=Rocco Granata - Als Ik Ooit Eens Vijf Minuten Tijd Heb
TTITLE12=Maartje Van Neygen - Canta Baila
TTITLE13=Jan Vankeerberghen - Zij
TTITLE14=Geena Lisa - Zeg Me Dat Het Niet Zo Is
TTITLE15=Tyana - Papa
TTITLE16=Axel Hirsoux - Mother
TTITLE17=Belle Perez - Papaoutai
TTITLE18=Ian Thomas - Broodje Bakpao
TTITLE19=2 Fabiola Feat. Loredana - She's After My Piano
EXTD=
EXTT0=
EXTT1=
EXTT2=
EXTT3=
EXTT4=
EXTT5=
EXTT6=
EXTT7=
EXTT8=
EXTT9=
EXTT10=
EXTT11=
EXTT12=
EXTT13=
EXTT14=
EXTT15=
EXTT16=
EXTT17=
EXTT18=
EXTT19=
PLAYORDER=
